<svg xmlns="http://www.w3.org/2000/svg" xml:space="preserve" viewBox="185.68 186 471.6 430">
    <path fill="#F6D840FF" d="m446 609-12 5-4 2-46-4-66-10-46-11-54-9-28-5-4-2v-2l11-3c-5-3-1-5 2-8l-10-7c-5-4-4-6 1-9l1-4 3-1 25 1 16 2c18-1 36 4 54 9 19 5 37 12 56 18l65 18 10 5 2 1c8-1 14 6 21 9l3 5m-188-29h-3l-1 1 19 4c-4-5-9-4-15-5m18 3-1 1h1v-1z"></path>
    <path fill="#F6D840FF" d="m409 405-11-9c-6-11-17-17-25-25l-22-24-13-13-2-4-7-30c-1-3-3-6 0-7 2-1 4 2 7 4l5 2c4 2 10 2 14 6l10 8c4 7 11 8 16 14l12 13 8 7 19 17 26 27 40 50 21 24 8 15c1 2 1 5-3 4-3 0-4 2-4 5 0 2-1 5-3 5h-6c-10-8-20-15-28-23l-21-22-6-5-26-29-9-10m38 1 4 4 1-1-12-15-1 1 8 11m-110-75h4v-1l-4 1z"></path>
    <path fill="#F6D840FF" d="m608 372-1-1-2-7c-1-5-5-9-4-14v-5c-6-3-6-10-7-15l-1-9-2-9-1-9-1-9-3-16-1-16-4-12-2-9-8-37-1-8c6-2 12-9 19 0l-2-10c11 1 13 9 15 16l11 50 10 56 6 25 9 36 11 42 8 31c1 6-1 12-1 18h-2l-4-6c-1-1-3-3-4-2-5 3-8-1-10-4-8-8-12-19-17-30v-6c-2-2-4-3-2-7 1-3-2-8-4-8 2-5 0-14-4-17l-1-3v-5z"></path></svg>