<svg xmlns="http://www.w3.org/2000/svg" version="1.0" viewBox="0 0 375 375">
    <path fill="#f9943b"
          d="M332 120c10-13 20-31 12-45-6-9-19-12-31-9-12 2-23 10-32 17-31 24-59 52-83 83l21 28c43-11 84-37 113-74ZM35 185c-16 6-34 16-35 31 0 12 10 21 21 25 12 5 24 4 37 3 39-3 77-12 114-26l-2-34c-43-14-92-14-135 1ZM230 349c11 13 27 26 42 21 11-4 16-16 16-28s-5-24-11-36c-17-35-39-68-65-97l-31 14c2 45 20 91 49 126Zm0 0"/>
    <path fill="#f9943b"
          d="M219 26c-4-10-14-19-25-20-13-1-25 8-31 19-7 12-8 25-8 38 0 36 5 73 15 107l34 2c15-35 22-74 21-113 0-11-1-23-6-33ZM352 260c11-3 21-11 24-21 4-13-3-27-13-35-11-8-24-11-36-13-36-7-73-8-108-4l-8 33c32 20 69 34 107 40 12 2 23 3 34 0ZM82 321c-2 11 1 23 10 31 10 8 25 7 37 0 11-6 19-17 27-27 20-30 36-63 46-98l-27-20c-32 22-59 50-80 83-6 9-12 19-13 31Zm0 0"/>
    <path fill="#f9943b"
          d="M86 57c-11-3-24-2-33 5-9 9-11 24-7 37 5 12 14 22 23 31 26 25 56 46 89 61l25-23c-17-35-40-67-69-92-8-8-18-15-28-19Zm0 0"/>
    <path fill="#fdf6c7" d="M155 195a33 33 0 1 0 66 0 33 33 0 0 0-66 0Zm0 0"/>
</svg>