<svg xmlns="http://www.w3.org/2000/svg" version="1.0" viewBox="0 0 375 375">
    <path fill="#b2ce2e" d="M76.4531 71.3398c20.418-19.2734 45.7031-16.2304 66.9922.461 8.711-58.8945 91.1953-56.4883 95.6484 3.1719 47.9493-37.0079 104.4102 22.2968 64.418 68.4882 59.0117 9.3985 56.4492 91.1953-3.1992 95.9922 36.414 48.9024-21.7813 103.961-68.539 63.8477-8.8555 58.8398-90.086 57.336-95.793-2.8125-49.5782 35.6836-104.2266-22.8399-64.1797-68.6367-59.4766-10.836-56.6602-90.1211 3.4492-96.293-14.5781-20.75-17.207-45.2031 1.2031-64.2188Zm137.8477 143.1875c34.9453-36.8359-18.2383-88.5507-53.9649-53.5-34.3632 35.8008 20.1172 88.5899 53.9649 53.5Zm0 0"/>
    <path fill="#fdf6c7" d="M234.2188 187.3672c0 1.539-.0782 3.0742-.2266 4.6055a47.3076 47.3076 0 0 1-.6797 4.5664c-.2969 1.5078-.6719 3-1.1172 4.4726a48.6788 48.6788 0 0 1-1.5547 4.3438c-.5898 1.4218-1.25 2.8125-1.9726 4.1718-.7266 1.3594-1.5196 2.6758-2.375 3.957-.8516 1.2813-1.7696 2.5157-2.7461 3.7071a47.4652 47.4652 0 0 1-3.0977 3.418 48.4008 48.4008 0 0 1-3.418 3.0976 47.0783 47.0783 0 0 1-3.707 2.7461c-1.2812.8555-2.5976 1.6485-3.957 2.375-1.3594.7227-2.7461 1.3828-4.1719 1.9688-1.4219.5898-2.8672 1.1094-4.3437 1.5547-1.4727.4492-2.9649.8203-4.4727 1.121a47.3072 47.3072 0 0 1-4.5664.6797c-1.5313.1485-3.0664.2266-4.6055.2266-1.539 0-3.078-.0781-4.6093-.2266a47.4095 47.4095 0 0 1-4.5625-.6796c-1.5118-.3008-3.004-.672-4.4766-1.1211a46.344 46.344 0 0 1-4.3438-1.5547c-1.4218-.586-2.8125-1.2461-4.168-1.9688a46.5097 46.5097 0 0 1-3.957-2.375 47.0785 47.0785 0 0 1-3.707-2.746c-1.1914-.9766-2.3281-2.0118-3.418-3.0977a47.4648 47.4648 0 0 1-3.0976-3.418c-.9766-1.1914-1.8945-2.4258-2.75-3.707a47.088 47.088 0 0 1-2.3711-3.957 47.253 47.253 0 0 1-1.9727-4.172c-.5898-1.4218-1.1054-2.871-1.5547-4.3437a47.6757 47.6757 0 0 1-1.121-4.4726c-.3008-1.5118-.5235-3.0313-.6758-4.5664a46.4888 46.4888 0 0 1-.2266-4.6055c0-1.539.0742-3.0781.2266-4.6094.1523-1.5312.375-3.0547.6758-4.5625a47.4516 47.4516 0 0 1 1.121-4.4766c.4493-1.4726.9649-2.9218 1.5547-4.3437.5899-1.4219 1.2461-2.8125 1.9727-4.168a47.1566 47.1566 0 0 1 2.371-3.961 47.7988 47.7988 0 0 1 2.75-3.703c.9767-1.1914 2.0079-2.332 3.0977-3.418a46.6474 46.6474 0 0 1 3.418-3.0977c1.1914-.9765 2.4258-1.8945 3.707-2.75 1.2774-.8554 2.5977-1.6445 3.957-2.371 1.3555-.7266 2.7462-1.3829 4.168-1.9727a46.3443 46.3443 0 0 1 4.3438-1.5547 47.4516 47.4516 0 0 1 4.4766-1.121 46.2062 46.2062 0 0 1 4.5625-.6759 46.5678 46.5678 0 0 1 4.6093-.2265c1.539 0 3.0743.0742 4.6055.2265a46.112 46.112 0 0 1 4.5664.6758c1.5078.3008 3 .6758 4.4727 1.1211 1.4765.4453 2.9218.9649 4.3437 1.5547a46.735 46.735 0 0 1 4.1719 1.9726 47.0882 47.0882 0 0 1 3.957 2.3711c1.2813.8555 2.5156 1.7735 3.707 2.75a47.4648 47.4648 0 0 1 3.418 3.0977c1.0899 1.086 2.1211 2.2266 3.0977 3.418.9765 1.1914 1.8945 2.4257 2.746 3.703a47.1977 47.1977 0 0 1 2.375 3.961 47.7719 47.7719 0 0 1 1.9727 4.168 48.6788 48.6788 0 0 1 1.5547 4.3438c.4453 1.4726.8203 2.9648 1.1172 4.4765a47.2285 47.2285 0 0 1 .6797 4.5625c.1484 1.5313.2266 3.0703.2266 4.6094Zm0 0"/>
</svg>
