<svg xmlns="http://www.w3.org/2000/svg" version="1.0" viewBox="65 74.05 222.2 256.17">
    <defs>
        <clipPath id="a">
            <path d="M65 74h222v256H65Zm0 0"/>
        </clipPath>
    </defs>
    <g clip-path="url(#a)">
        <path fill="#ffa9c3" d="M172 280c-18-6-31-18-43-31-28-29-49-62-60-100-3-10-4-21-4-31 0-24 21-37 43-30 15 5 26 15 35 27 15 17 25 37 34 58l5 11c5-11 8-21 13-30 9-17 19-35 30-52 5-8 12-16 20-22 16-12 34-5 40 14 4 14 2 28-2 42a607 607 0 0 1-82 186c-5 6-12 9-20 8-12-2-20-13-17-27l8-23Zm-25-42c-12-32-25-64-45-93 6 35 23 65 45 93Zm0 0"/>
    </g>
</svg>