<svg xmlns="http://www.w3.org/2000/svg" xml:space="preserve" viewBox="0 0 780 780">
    <path fill="#bfdff1" d="m362 141 5 1 6 1 2-2 3 4c7-5 32-4 33-1l25 1 24 6 1 2c11-1 14 0 19 5l4-2v1l5 2 6 4 12 4c14 7 28 15 38 27l11 10 5 8c4-1 4 4 6 7 1 3 2 5 5 6s5 4 7 7c3 6 6 13 11 17 6 6 7 14 12 19l1 2c0 10 8 15 12 22l2 4c0 5 1 9 4 12 2 2 3 5 3 7l4 17v2l7 19v9l3 3-1 1 2 5 2 18 1 13v15l-3 15-1 10c-1 8-1 17-5 24-2 3-2 6-2 9-1 8-4 15-7 22l-16 29-14 17-19 19c-11 10-21 21-35 27-5 2-9 6-13 10-4 3-8 5-13 6-4 1-8 5-11 7l-22 10h-8c0 3-1 5-6 5-3-1-5 2-8 3l-15 4-15 3c-8 0-15 2-23 3l-19 1-2-2h-10c-8 0-16 0-23-2-2 0-9 1-8-5l-4 2-8-1-4-3c-4 6-10 1-15 0l-16-3h-1c-4-5-11-5-17-8l-13-5-20-8c-8-3-13-8-19-13-4-3-10-5-15-7l-5-5c-2-4-7-7-10-10-3-4-9-5-9-11l-1-2-5-8c-1-2-1-6-5-6l-2-2-8-12-3-5c-3-9-7-17-8-26-2-10-7-19-10-29v-12l-3-12-2-17 1-23 2-14 10-37 3-2-1-10 6-9 1-4 5 1c-4-7 0-11 3-15l3-6c7-11 12-23 21-33l2-5 9-11c4-4 9-7 11-11 5-10 13-15 21-20l2-3 26-19h4l3-1c3-2 6-7 8-6 7 2 8-7 14-7l10-1 4 4 7-2-3-2c4-7 9-7 16-5 3-4 4-5 7-3l-2 8-3 2-17 5h-1c-4-1-7-1-8 3l-2 3-32 18c-8 4-14 10-19 16l-3 1c-3 1-6 2-7 7l-7 6-13 17c-5 4-7 10-11 15l-4 3-11 17-5 10-16 36-10 29-2 27c0 15 0 29 2 43l9 39c3 10 7 19 12 28l6 11 17 20 2 2c4 6 8 12 15 15 8 4 15 10 23 15 10 6 21 10 32 13 3 1 5 4 6 5l16 3c7 2 15 5 23 6l31 6 50 2h5c8 2 14-2 21-3l36-12c15-4 27-13 41-19 4-1 8-5 12-8 5-3 11-6 15-10 11-8 23-15 31-26l20-23c8-12 15-24 21-37 3-5 3-11 5-17l6-21 3-34c1-12-2-23-3-34a204 204 0 0 0-16-57c-3-7-7-13-9-20-8-18-18-34-29-50-9-12-19-22-29-33s-22-18-34-26c-8-6-17-10-27-12l-28-9-29-4h-1c-9-4-17-1-26-2-4-1-6-4-7-8l-1 6-39 3-27 3c-6 1-7 0-7-9-5-1-5 3-5 5 1 4 0 6-3 7l-15 3h-2c-7 3-11 1-13-6l3-5 21-5c4-1 9 0 12-2 3-3 6 0 9-3h5c0-4 5-2 8-3 5 0 9 1 14-2 2-1 6 1 9 1h2l6-3z"/>
    <path fill="#bfdff1"
          d="M355 389v6l-1 19c-5 2-2 9-6 13l-2-2-8 6c-4-7-8-9-12-5l-9-5-14-11-5-2-11-9-1-5-3 2c-5-4-9-6-13-11-2-3-8-6-5-13-7 1-5-5-6-8-1-2-2-4 0-7 2-2-2-1-3-4v-12l1-2c-1-5 2-8 7-9 2 0 5-1 6-3 1-3 4-1 6-1l6-2v-1l9 5c5-1 9 2 11 10l8-12 6-11 5-4h7v-2l2 2 6-1 8 12 2 4 2 3c0 5 4 9 4 14-1 6 2 11 3 17 1 7-3 14 1 22 1 1-1 4-1 7m-62-47 2-3 1-3-5-1c-3 2-3 5 2 8v-1m2 3v10c6-4 6-5 0-10zM442 304l14-20c3-4 5-10 12-10 2 0 4-3 4-3l8 2 5 4c3 3 4 7 6 10l2 6 1 3v23l-2 16h-2l-1 8-1 12-5 5 3 4-4 2c6 3 2 7 0 11l-9 9-12 1h-5l-2 1c-3-4-8-1-11-3l-6-4-9-13-4-1c-6-7-14-10-17-20-1-4-4-6-7-10-4-3-5-9-8-13l-2-6c-2-4-1-8 2-12l-2-7c7 2 7-2 7-7 5 1 10-1 13 5l2-4 17 6-5 4 1 1 6-3 10 11 1-8z"/>
    <path fill="#bfdff1"
          d="M366 512c-6 3-11 1-15-2-4-4-7-10-4-17l3-3 1-4 6 9c8-6 6 5 10 6v-2l5-2c15 5 30 3 45 3 5 0 9-2 13-4l20-12c6-4 11-9 14-14 4-8 11-15 16-22 1-3 6-5 9-7h2c2 1 7 9 7 11v2c2 7 2 9-4 12h-5l-3 12c0 3-1 6-3 7l-12 11-2 4c-3 5-12 8-19 7l-1 1-2 2c-4 0-3 2-1 6l-7 1-8 3c-8 3-16 2-24 2h-22l-7-2-6-2c-3-1-4-2-2-4l-4-2z"/>
</svg>